<svg version="1.1" id="Layer_1" xmlns="http://www.w3.org/2000/svg" xmlns:xlink="http://www.w3.org/1999/xlink" x="0px" y="0px"
	 width="100%" viewBox="0 0 512 512" enable-background="new 0 0 512 512" xml:space="preserve">
<path fill="#F291D0" opacity="1.000000" stroke="none" 
	d="
M169.494019,429.698059 
	C168.260880,413.015991 166.580200,396.581848 165.048950,380.133759 
	C164.741318,376.829315 165.254730,373.448792 164.951935,370.143433 
	C164.087448,360.707001 163.057098,351.283875 161.905853,341.878326 
	C161.788589,340.920349 160.579865,339.750763 159.593735,339.298645 
	C151.290436,335.491821 142.502380,332.541107 134.679092,327.940308 
	C125.258675,322.400238 116.546783,315.623169 107.715431,309.127075 
	C103.199005,305.804901 98.778587,302.232544 94.870010,298.230927 
	C88.576164,291.787292 81.960052,285.429016 76.918854,278.051544 
	C71.117256,269.561279 66.792496,260.047852 62.000362,250.887726 
	C59.655567,246.405655 57.215519,241.873810 55.685398,237.087402 
	C53.094391,228.982376 50.610378,220.758057 49.163155,212.396652 
	C47.741352,204.182129 46.937901,195.713943 47.173199,187.394119 
	C47.513622,175.357162 49.033951,163.353561 50.070896,151.099762 
	C43.321434,151.099762 35.850578,151.099762 28.379721,151.099762 
	C28.214911,150.707779 28.050100,150.315811 27.885290,149.923828 
	C35.246719,143.211670 45.114605,140.957245 54.692295,136.594818 
	C42.359100,128.387589 30.683887,120.641975 19.079536,112.791611 
	C18.695677,112.531937 19.030838,111.209404 19.030838,110.346588 
	C30.595188,109.069855 41.724693,110.560303 52.795300,113.296295 
	C56.708874,114.263496 60.810829,114.686646 64.845352,114.827919 
	C66.257721,114.877380 68.298294,113.698204 69.077560,112.464554 
	C75.143486,102.861702 82.764854,94.678276 92.030518,88.262787 
	C101.646248,81.604912 111.308563,74.708336 123.945755,74.962692 
	C133.289429,75.150757 142.639908,74.999184 151.987350,75.001976 
	C152.653229,75.002174 153.459991,74.784767 153.963806,75.077385 
	C161.343155,79.363235 169.765732,80.930573 177.430573,85.070938 
	C188.935181,91.285500 198.972321,98.895279 208.108200,107.794113 
	C215.099594,114.604111 221.152725,122.403618 227.379272,129.963882 
	C231.985123,135.556320 236.473770,141.286346 240.520981,147.287979 
	C246.325409,155.895432 251.593353,164.862610 257.257965,173.567139 
	C260.954163,179.246887 264.932220,184.743912 268.812317,190.303055 
	C272.534943,195.636551 275.807617,201.384201 280.136444,206.174072 
	C289.719727,216.778061 299.242279,227.575272 309.931885,236.997757 
	C318.640869,244.674332 328.834839,250.745499 338.722382,256.969238 
	C343.072876,259.707672 348.281769,261.096497 353.129181,263.027161 
	C357.576477,264.798431 362.020477,266.599182 366.561066,268.098907 
	C367.612335,268.446136 369.381805,268.013367 370.257050,267.273071 
	C375.983276,262.429840 381.273163,257.030426 387.243530,252.525696 
	C395.834259,246.043823 404.777222,240.008789 413.761383,234.072952 
	C427.248138,225.162247 442.675476,221.708237 458.295929,219.080170 
	C465.056915,217.942673 473.191162,222.458160 474.212982,227.745712 
	C474.678101,230.152420 474.480255,232.847656 473.920441,235.258133 
	C472.802368,240.072510 475.496460,243.697372 478.307617,246.287384 
	C481.194366,248.947021 485.554779,250.042938 489.324097,251.700775 
	C495.349884,254.351059 496.147430,259.724854 490.878632,263.978699 
	C485.494537,268.325592 479.828247,272.084412 472.680573,273.268250 
	C469.762146,273.751617 467.202942,276.126495 464.284851,276.938782 
	C452.834717,280.126282 441.215668,282.730377 429.836212,286.141174 
	C420.657745,288.892303 411.617584,292.205505 402.732880,295.804504 
	C395.476440,298.743988 388.516144,302.424683 381.468872,305.867493 
	C374.240784,309.398651 367.066498,313.040009 361.861877,315.638153 
	C355.623047,310.358124 349.644318,305.388458 343.767761,300.300751 
	C337.175995,294.593842 330.606567,288.856995 324.167786,282.979401 
	C321.128571,280.205109 318.603882,276.859467 315.518341,274.145233 
	C308.892883,268.317078 302.061310,262.722900 295.302124,257.047150 
	C287.601318,250.580765 279.907867,244.105347 272.173553,237.679199 
	C264.545288,231.341156 256.922577,224.993057 249.138062,218.851318 
	C248.311188,218.198944 246.415665,218.901108 245.015900,218.974869 
	C245.207367,220.349442 244.882782,222.334793 245.672134,223.001740 
	C251.838593,228.211884 258.278687,233.096298 264.514313,238.227112 
	C269.403351,242.249893 274.132660,246.467514 278.912598,250.621994 
	C290.933350,261.069763 303.031525,271.430969 314.922302,282.024841 
	C321.792664,288.145905 328.298615,294.674744 335.009735,300.976196 
	C341.516327,307.085602 348.527832,312.729523 354.495911,319.321716 
	C361.762299,327.347992 368.203003,336.125580 374.921082,344.641144 
	C376.254608,346.331421 377.227539,348.306183 378.366730,350.149750 
	C378.060394,350.742767 377.754028,351.335785 377.447693,351.928802 
	C371.490051,350.332550 365.352203,349.212311 359.612640,347.039856 
	C348.031494,342.656403 336.577820,337.902222 325.251740,332.893524 
	C319.869659,330.513428 314.990936,327.020203 309.718231,324.360138 
	C305.036530,321.998291 300.052277,320.240540 295.338837,317.935516 
	C291.609192,316.111572 288.083618,313.869110 284.474304,311.800446 
	C273.510315,305.516693 262.462524,299.372894 251.616821,292.890991 
	C243.732803,288.179138 235.982285,283.213898 228.418320,278.004333 
	C219.774521,272.051025 211.430786,265.663696 202.905014,259.536835 
	C196.145569,254.679321 189.214005,250.056488 182.544632,245.080475 
	C179.135666,242.537064 176.150452,239.428925 172.944260,236.609528 
	C170.048813,234.063416 167.142654,231.527863 164.189819,229.048889 
	C155.523041,221.773010 149.085922,212.690964 143.029449,203.268723 
	C142.377426,202.254364 140.886917,201.778946 139.785370,201.053528 
	C139.218430,202.452286 137.790390,204.267471 138.231155,205.178879 
	C140.321091,209.500458 142.273117,214.174438 145.462875,217.623749 
	C154.336670,227.219589 163.750946,236.320145 173.075638,245.490326 
	C174.754852,247.141678 177.067429,248.132690 179.013733,249.531372 
	C191.761887,258.692657 204.437271,267.956268 217.247162,277.030121 
	C223.318436,281.330688 229.636230,285.283020 235.838318,289.399139 
	C241.876282,293.406342 247.809113,297.584076 253.980408,301.373749 
	C257.893524,303.776703 262.231293,305.476227 266.250519,307.720642 
	C275.548737,312.912964 284.699768,318.371948 294.050446,323.465912 
	C298.665527,325.980072 303.658417,327.791077 308.355560,330.166992 
	C312.576965,332.302277 316.627716,334.774902 321.856415,337.719788 
	C313.745758,340.274567 306.271240,342.752380 298.720123,344.969482 
	C292.386719,346.829132 285.985901,348.474121 279.572174,350.038849 
	C276.119080,350.881256 272.599792,351.645538 269.068665,351.933289 
	C262.329071,352.482422 255.537399,353.148926 248.809921,352.839935 
	C243.837814,352.611542 242.753525,355.052185 241.958420,358.967926 
	C240.098526,368.127380 237.970169,377.231964 236.012390,386.371979 
	C233.309250,398.991882 230.721405,411.636688 227.963745,424.244507 
	C226.861664,429.283112 225.438873,434.251617 223.971863,439.996948 
	C218.224686,439.996948 211.601822,440.158630 205.003235,439.831177 
	C203.954865,439.779144 202.200348,437.485992 202.258835,436.302460 
	C202.315613,435.153107 204.148865,433.400543 205.442230,433.149292 
	C208.011719,432.650024 210.794785,432.677399 213.402359,433.068634 
	C218.514160,433.835602 219.316315,430.659973 220.037918,426.815369 
	C221.796829,417.444366 223.652740,408.088287 225.675156,398.770844 
	C228.000946,388.055847 230.523727,377.383179 233.015152,366.704803 
	C233.673599,363.882690 234.228592,360.976044 235.368912,358.340973 
	C237.089615,354.364655 235.157913,353.263031 231.789261,353.015961 
	C226.535767,352.630646 221.253052,352.537354 216.023712,351.953339 
	C207.775955,351.032227 199.501999,350.130341 191.352051,348.613525 
	C184.109955,347.265656 177.021378,345.092957 170.369385,343.411774 
	C170.902542,354.575378 171.051071,366.125427 172.108475,377.591614 
	C173.306305,390.580414 175.568420,403.469055 176.869247,416.451202 
	C177.495529,422.701324 176.977249,429.066132 176.977249,435.997040 
	C169.858414,435.997040 162.922974,436.122772 156.002197,435.861023 
	C154.968735,435.821930 154.004089,433.963257 153.007599,432.946381 
	C154.039856,431.965149 155.010712,430.226074 156.115250,430.136566 
	C160.420181,429.787659 164.767517,429.961578 169.494019,429.698059 
M113.439987,117.939034 
	C109.411079,112.965477 106.453575,112.861717 98.192772,116.921005 
	C93.315414,119.317696 91.175117,123.502777 91.140823,128.424545 
	C91.103905,133.724533 94.946915,135.605560 99.818329,136.474976 
	C106.409065,137.651215 111.315506,136.617996 114.960388,130.140076 
	C117.548691,125.539948 116.612389,122.179665 113.439987,117.939034 
M84.947372,260.638000 
	C84.745209,260.374786 84.583847,259.934052 84.334381,259.876740 
	C82.494362,259.453979 79.925575,258.172516 78.930496,258.929199 
	C76.757614,260.581543 77.994408,262.316040 80.116951,263.819946 
	C81.445084,264.760986 82.014893,266.743683 82.991669,268.214691 
	C85.707809,272.305145 88.458801,276.372406 91.196030,280.448853 
	C91.937302,280.356812 92.678566,280.264801 93.419838,280.172760 
	C93.685303,278.029724 94.901001,275.335052 94.037445,273.847412 
	C91.482948,269.446808 88.107193,265.522888 84.947372,260.638000 
M120.607262,296.003876 
	C118.019371,294.107422 115.572350,291.954559 112.784142,290.422760 
	C111.390839,289.657288 109.374283,290.026306 107.639626,289.882141 
	C107.884987,291.505127 107.536308,293.908539 108.473831,294.622223 
	C113.844421,298.710266 119.520515,302.397003 125.030289,306.176971 
	C129.061813,302.367096 128.895187,301.513855 124.346489,298.941498 
	C123.186905,298.285706 122.358971,297.043518 120.607262,296.003876 
M144.504776,299.916199 
	C148.053467,302.095428 151.602173,304.274658 155.150864,306.453857 
	C155.524445,306.211212 155.898010,305.968536 156.271591,305.725861 
	C155.812485,303.639923 156.052490,300.787476 154.763321,299.611664 
	C150.878601,296.068420 146.520554,292.986969 142.076477,290.149231 
	C140.757446,289.306946 138.544067,289.865265 136.740479,289.781799 
	C137.098999,291.298492 137.001648,293.221527 137.913727,294.244812 
	C139.655273,296.198639 141.972015,297.639801 144.504776,299.916199 
M179.380005,325.062469 
	C181.564377,324.839783 183.748764,324.617096 185.933136,324.394379 
	C184.523132,322.916870 183.379883,320.795929 181.653992,320.080353 
	C176.092590,317.774567 170.316483,315.986694 164.726318,314.035126 
	C161.583298,317.648621 163.120041,319.669098 166.820724,320.957245 
	C170.726166,322.316620 174.639252,323.654083 179.380005,325.062469 
M95.543686,240.034531 
	C94.188408,238.269135 92.833130,236.503738 90.474335,233.431152 
	C89.518631,236.432007 87.952835,238.835083 88.583260,239.793457 
	C91.719078,244.560501 95.512123,248.888931 98.906738,253.494904 
	C100.380341,255.494354 101.928558,257.545685 104.178902,255.136108 
	C106.504059,252.646484 104.207329,250.898254 102.438957,248.999054 
	C100.051437,246.434891 98.097717,243.466827 95.543686,240.034531 
M139.008957,318.516357 
	C144.305450,322.268829 149.601944,326.021271 155.757233,330.382202 
	C155.757233,327.096985 155.757233,325.322632 155.757233,323.793152 
	C151.224655,320.439087 146.894867,317.001801 142.298141,313.969116 
	C140.829498,313.000153 138.653381,313.103516 136.800949,312.716248 
	C137.360703,314.473236 137.920471,316.230194 139.008957,318.516357 
M181.090622,335.480164 
	C187.460724,337.530762 193.791428,339.722778 200.232788,341.517700 
	C201.588486,341.895447 203.350418,340.815338 204.925156,340.406982 
	C204.078934,339.235596 203.460907,337.384521 202.346954,337.010498 
	C197.522232,335.390533 192.403870,334.580109 187.687668,332.724579 
	C184.513580,331.475830 182.726456,332.179077 181.090622,335.480164 
M107.006737,274.514709 
	C110.310883,277.571686 111.710152,283.276306 119.397369,282.837250 
	C117.682159,279.841888 116.617302,277.844666 115.423531,275.927734 
	C113.306740,272.528656 111.344849,268.989075 108.836983,265.898712 
	C107.803642,264.625366 105.417557,263.580688 103.836990,263.800446 
	C100.487625,264.266083 102.298264,266.605743 103.068268,268.168610 
	C104.059067,270.179657 105.335800,272.049835 107.006737,274.514709 
M139.603821,276.994690 
	C142.378113,276.994843 144.351959,275.468353 142.391098,273.130951 
	C138.510681,268.505341 133.969315,264.418182 129.537277,260.284149 
	C128.583847,259.394806 126.935593,259.250397 124.508293,258.359375 
	C125.172737,261.381866 124.956223,264.126709 126.224335,265.469757 
	C130.112061,269.587189 134.569351,273.166840 139.603821,276.994690 
M175.574738,299.054474 
	C178.953049,297.455719 177.667633,295.812073 175.590942,294.221100 
	C171.602081,291.165192 167.710052,287.956055 163.516342,285.209778 
	C162.156860,284.319489 159.980774,284.676147 158.178207,284.462494 
	C158.594833,286.278412 158.541138,288.433777 159.545486,289.825592 
	C160.842316,291.622681 162.842407,293.050751 164.795502,294.204742 
	C168.089020,296.150696 171.583664,297.756226 175.574738,299.054474 
M191.581223,306.001221 
	C189.606628,305.217651 187.632034,304.434082 185.623825,303.637177 
	C183.979874,307.967712 185.693359,309.902161 188.963409,310.991394 
	C192.764725,312.257599 196.696030,313.233856 200.330399,314.870148 
	C203.421494,316.261871 205.589905,316.414398 207.106583,312.451019 
	C205.784439,311.491577 204.506851,310.131714 202.937180,309.514038 
	C199.506378,308.163940 195.927231,307.190857 191.581223,306.001221 
z"/>
</svg>