<?xml version="1.0" encoding="UTF-8" standalone="no" ?>
<!DOCTYPE svg PUBLIC "-//W3C//DTD SVG 1.1//EN" "http://www.w3.org/Graphics/SVG/1.1/DTD/svg11.dtd">
<svg xmlns="http://www.w3.org/2000/svg" xmlns:xlink="http://www.w3.org/1999/xlink" version="1.1" width="500" height="485.87127" viewBox="32.60869494612405 42.517299662400006 432.7445666295519 420.5163043478" xml:space="preserve">
<desc>Created with Fabric.js 5.3.0</desc>
<defs>
</defs>
<g transform="matrix(1 0 0 1 248.9809782609 252.7754518363)" id="SzkJGr4tXFezPRZ_p1k82"  >
<g style=""   >
		<g transform="matrix(3.0915272531 0 0 3.0041685552 0 0)" id="ypiUsRK4JtqByzAHz76Ng"  >
<path style="stroke: rgb(237,158,7); stroke-width: 0; stroke-dasharray: none; stroke-linecap: butt; stroke-dashoffset: 0; stroke-linejoin: miter; stroke-miterlimit: 4; fill: rgb(242,94,191); fill-rule: nonzero; opacity: 1;"  transform=" translate(0, 0)" d="M 0 -69.9888 C 38.63382 -69.9888 69.9888 -38.63382 69.9888 0 C 69.9888 38.63382 38.63382 69.9888 0 69.9888 C -38.63382 69.9888 -69.9888 38.63382 -69.9888 0 C -69.9888 -38.63382 -38.63382 -69.9888 0 -69.9888 z" stroke-linecap="round" />
</g>
		<g transform="matrix(2.1290706256 0 0 1.9937795332 0 0)" id="trnW7MPliobZlqxac6v2m"  >
<path style="stroke: rgb(108,220,177); stroke-width: 0; stroke-dasharray: none; stroke-linecap: butt; stroke-dashoffset: 0; stroke-linejoin: miter; stroke-miterlimit: 4; fill: rgb(249,247,234); fill-rule: nonzero; opacity: 1;"  transform=" translate(-59.3505069506, -56.445687607)" d="M 59.3525 0 L 76.95888 38.17028 L 118.70101 43.12048 L 87.8385 71.66196 L 96.03008 112.89138 L 59.35051 92.35928 L 22.67094 112.89138 L 30.862520000000004 71.66196 L 0.000010000000003174137 43.12047999999999 L 41.742140000000006 38.17027999999999 z" stroke-linecap="round" />
</g>
</g>
</g>
</svg>